{"glyphs":{"0":{"ha":753,"x_min":-31,"x_max":734,"o":"m 450 -42 l 439 57 l 308 57 l 297 14 l 264 3 l 264 111 l 209 122 l 155 232 l 111 232 l 90 199 l 90 210 l 111 264 q 79 330 79 286 q 66 407 79 374 l 12 407 l 12 418 q 39 461 45 427 q 35 492 37 477 q 34 517 34 506 l 1 517 l 23 549 l 12 593 l -9 593 q 6 608 1 598 q 12 631 11 618 q 13 656 14 643 q 12 681 12 669 l -9 703 q 12 730 12 703 l 12 779 l -31 856 l -9 856 l 56 822 l 144 899 l 144 932 l 133 975 l 165 986 l 198 932 l 373 932 l 373 954 l 362 986 l 373 986 l 406 921 l 559 878 l 614 921 q 612 836 609 878 q 625 757 614 795 q 658 604 647 682 l 734 604 l 734 582 l 680 571 l 680 517 l 690 439 l 680 363 l 723 297 l 658 264 l 625 189 l 591 178 q 543 95 591 121 q 494 14 494 68 l 461 3 l 450 -42 m 483 90 l 548 144 q 570 222 559 183 q 597 302 582 262 q 614 472 624 385 q 564 648 591 562 q 505 811 537 734 q 380 878 450 856 q 220 888 309 899 q 127 729 155 822 q 100 538 100 636 q 139 413 117 472 q 193 297 161 354 q 249 186 222 243 q 297 68 275 129 l 362 57 l 483 90 m 297 396 l 297 407 q 270 450 264 416 q 274 483 273 467 q 275 517 275 499 l 330 549 l 351 439 l 297 396 z "},"1":{"ha":464,"x_min":-1,"x_max":434,"o":"m 412 -8 q 264 33 338 27 q 104 39 190 39 l 104 49 l 263 107 l 263 210 q 256 368 263 290 q 242 525 250 446 q 228 682 235 604 q 221 842 221 761 l 199 842 l -1 762 l 263 935 l 263 911 q 241 773 241 860 l 241 624 q 267 336 241 475 q 317 60 293 197 l 434 -8 l 412 -8 z "},"2":{"ha":694,"x_min":-19,"x_max":692,"o":"m 114 16 l 102 52 l 236 305 l 270 316 q 353 494 302 406 q 448 671 403 582 l 315 883 l 236 883 l 137 838 l 125 806 l -19 727 q 142 854 58 793 q 315 949 225 916 l 480 761 l 480 738 l 514 727 l 525 693 l 191 160 l 225 160 q 452 194 336 183 q 692 205 568 205 l 658 205 q 386 89 522 138 q 114 -5 250 39 l 114 16 z "},"3":{"ha":661,"x_min":-1,"x_max":647,"o":"m 180 8 q 82 79 127 34 q -1 176 37 125 l 37 176 l 127 111 l 127 85 l 374 85 l 491 151 l 505 229 q 427 313 465 281 q 336 372 388 346 l 336 397 l 24 463 l 24 488 l 37 514 l 115 528 l 414 475 l 479 488 q 530 644 517 566 q 530 812 544 722 l 491 917 q 368 956 439 943 q 232 968 297 968 l 141 929 l 64 709 l -1 709 l -1 761 l 50 891 l 127 955 l 297 1020 l 297 1059 l 439 1059 l 465 1046 q 595 827 556 943 q 635 579 635 711 q 582 494 608 540 q 570 397 555 449 q 627 261 608 332 q 635 111 647 190 q 428 14 544 34 q 180 8 312 -5 z "},"4":{"ha":559,"x_min":-4,"x_max":549,"o":"m 256 250 l 263 285 q 151 328 212 293 q 93 351 123 346 q 28 346 62 357 l -4 336 l -4 354 l 38 406 l 62 406 q 206 672 132 537 q 347 939 281 807 l 363 947 l 363 956 l 363 947 q 344 792 355 869 q 322 637 332 715 q 304 483 312 560 q 297 327 297 406 l 549 319 l 549 293 l 339 275 l 297 285 q 289 133 281 216 q 263 -3 297 52 l 256 250 m 273 589 l 281 659 l 263 659 l 88 433 q 179 380 138 415 q 273 346 221 346 l 273 589 m 289 677 l 289 685 l 281 685 l 273 677 l 281 667 l 289 677 z "},"5":{"ha":589,"x_min":-5,"x_max":585,"o":"m 156 0 l 62 109 l 62 134 l 22 175 l 75 81 l 142 68 l 464 201 l 477 241 q 437 315 450 281 q 410 389 423 349 l 304 430 l -5 349 l -5 430 q 35 631 35 524 l 35 845 l 22 913 l 22 886 q 330 879 174 899 q 585 765 476 859 q 357 818 476 818 q 236 821 296 818 q 115 831 176 825 l 102 483 l 195 456 l 423 510 l 557 161 l 156 0 z "},"6":{"ha":562,"x_min":22,"x_max":548,"o":"m 152 5 l 33 104 l 22 464 q 41 585 33 525 q 58 707 50 646 q 152 925 72 827 l 316 959 q 416 937 373 959 q 492 882 458 914 l 548 694 l 339 684 l 328 718 q 350 749 339 734 q 372 777 361 764 q 382 848 393 802 l 339 903 l 283 903 l 163 848 q 114 678 121 773 q 85 498 107 585 l 109 498 q 196 553 152 530 q 294 575 240 575 q 405 515 351 552 q 503 433 458 477 q 527 395 519 416 q 536 349 534 373 q 537 299 538 326 q 536 245 536 273 q 494 177 519 209 q 437 117 468 145 q 372 64 406 90 q 305 18 338 39 l 152 5 m 350 83 l 514 258 l 514 311 l 437 444 l 416 453 l 406 487 q 371 510 389 503 q 333 519 353 517 q 292 520 313 521 q 251 519 271 519 l 119 464 l 109 191 l 175 50 l 273 39 l 350 83 m 184 256 q 175 334 163 286 l 197 377 l 283 377 l 316 235 q 229 191 293 191 l 184 256 z "},"7":{"ha":566,"x_min":-3,"x_max":562,"o":"m 119 5 q 274 416 161 221 q 382 612 331 514 q 479 807 433 709 q 238 828 355 807 q -3 869 121 849 l 18 869 l 562 838 l 562 818 q 465 606 519 708 q 345 406 411 503 q 222 208 278 308 q 119 5 165 109 z "},"8":{"ha":681,"x_min":-9,"x_max":677,"o":"m 300 -15 l 31 35 l 9 178 l 95 385 l 214 514 l 214 566 q 100 624 146 578 l 0 722 l -9 812 q 48 948 22 878 q 117 1085 75 1019 l 149 1085 q 327 1050 236 1070 q 503 1019 418 1031 l 439 928 q 420 828 433 875 q 389 741 408 781 q 353 654 369 697 q 321 566 336 610 q 492 455 407 514 q 655 319 578 396 l 677 138 q 627 61 665 87 q 557 0 590 34 l 300 -15 m 568 47 q 627 132 612 87 q 643 240 643 178 q 546 358 600 305 q 439 448 492 411 l 300 488 q 176 351 235 422 q 84 190 117 279 l 75 73 q 262 18 156 24 q 366 14 313 15 q 471 12 418 12 l 568 47 m 278 228 q 385 279 320 307 l 406 266 l 418 190 q 379 158 406 164 q 331 152 353 152 l 278 228 m 278 591 l 278 604 l 396 954 q 283 998 343 991 q 159 1019 224 1005 q 119 955 140 989 q 80 883 99 921 q 43 722 43 811 q 155 642 95 681 q 267 578 214 604 l 278 591 m 224 761 l 159 852 l 236 876 l 256 864 l 256 787 l 224 761 z "},"9":{"ha":640,"x_min":-5,"x_max":639,"o":"m 209 -1 l 31 146 l 31 271 l 31 221 l 133 85 l 335 60 l 335 85 l 359 85 l 387 122 q 519 301 476 197 q 563 521 563 406 l 537 521 l 119 370 l 7 509 l -5 670 l 83 831 q 264 913 159 907 q 374 918 319 916 q 487 920 429 920 q 601 707 563 819 q 625 458 639 595 l 563 283 l 537 283 l 487 134 l 461 134 l 423 72 l 387 60 l 372 23 l 209 -1 m 549 559 l 525 689 q 461 807 513 755 l 399 831 l 387 869 l 335 869 l 119 770 l 107 732 l 83 732 l 57 608 l 119 547 l 335 533 l 549 559 m 297 621 l 271 708 l 347 745 l 372 732 l 387 658 l 297 621 z "},"\u0000":{"ha":0,"x_min":0,"x_max":0,"o":""},"\r":{"ha":0,"x_min":0,"x_max":0,"o":""}," ":{"ha":694,"x_min":0,"x_max":0,"o":""},"!":{"ha":694,"x_min":0,"x_max":0,"o":""},"\"":{"ha":694,"x_min":0,"x_max":0,"o":""},"#":{"ha":694,"x_min":0,"x_max":0,"o":""},"$":{"ha":694,"x_min":0,"x_max":0,"o":""},"%":{"ha":694,"x_min":0,"x_max":0,"o":""},"&":{"ha":694,"x_min":0,"x_max":0,"o":""},"'":{"ha":103,"x_min":-4,"x_max":88,"o":"m 49 916 l 72 1069 l 42 1069 l 19 1062 l -4 1146 l 49 1162 q 80 1108 72 1139 q 88 1039 88 1077 l 49 916 z "},"(":{"ha":694,"x_min":0,"x_max":0,"o":""},")":{"ha":694,"x_min":0,"x_max":0,"o":""},"*":{"ha":694,"x_min":0,"x_max":0,"o":""},"+":{"ha":694,"x_min":0,"x_max":0,"o":""},",":{"ha":103,"x_min":28,"x_max":76,"o":"m 56 -164 l 68 -4 l 52 -4 l 39 -12 l 28 76 l 56 92 q 72 36 68 68 q 76 -37 76 4 l 56 -164 z "},"-":{"ha":374,"x_min":18,"x_max":347,"o":"m 18 562 l 18 564 q 136 579 69 579 q 264 574 203 579 l 347 567 l 218 564 l 76 567 l 18 562 z "},".":{"ha":126,"x_min":22,"x_max":95,"o":"m 41 0 l 22 16 l 66 20 l 95 5 l 41 0 z "},"/":{"ha":400,"x_min":-4,"x_max":357,"o":"m -4 -9 q 165 499 58 250 q 357 998 270 741 l 346 967 l 357 924 q 319 802 326 872 q 313 734 316 768 q 304 670 309 701 l 315 595 l 282 543 l 260 543 l 260 521 l 165 415 q 125 309 144 362 q 91 198 107 255 q 52 90 76 141 q -4 -9 27 38 z "},":":{"ha":694,"x_min":0,"x_max":0,"o":""},";":{"ha":694,"x_min":0,"x_max":0,"o":""},"<":{"ha":694,"x_min":0,"x_max":0,"o":""},"=":{"ha":694,"x_min":0,"x_max":0,"o":""},">":{"ha":694,"x_min":0,"x_max":0,"o":""},"?":{"ha":694,"x_min":0,"x_max":0,"o":""},"@":{"ha":1070,"x_min":-4,"x_max":1063,"o":"m 472 -107 l 575 -42 l 575 -16 q 324 67 444 9 q 85 202 205 125 q 22 344 47 267 q 8 510 -4 420 q 53 670 35 593 q 137 819 71 749 q 395 903 256 884 q 690 909 534 922 l 831 845 l 831 819 l 909 768 q 1025 595 986 690 q 1050 381 1063 500 q 992 227 1024 304 q 909 85 960 151 l 871 73 l 871 47 q 647 -75 768 -30 q 395 -145 526 -119 l 420 -145 l 472 -107 m 677 22 l 768 85 l 768 111 l 601 125 l 395 85 l 395 60 q 448 33 420 46 q 503 8 475 20 q 639 -4 562 -18 l 677 22 m 819 137 q 900 243 864 189 q 960 356 936 297 q 995 479 985 415 q 998 613 1005 543 q 947 716 986 665 q 857 806 909 768 q 672 883 768 857 q 458 909 576 909 q 286 871 369 897 q 137 793 202 845 q 92 716 111 754 q 60 638 72 678 q 44 554 47 598 q 47 458 41 510 l 151 266 q 170 362 163 317 q 202 446 176 407 q 298 485 254 472 q 407 498 343 498 l 536 472 l 549 665 l 433 754 l 214 780 l 214 793 l 228 793 q 393 780 304 768 q 549 742 480 793 q 625 472 613 608 q 645 334 632 401 q 677 202 658 267 l 780 125 l 806 125 l 819 137 z "},"A":{"ha":804,"x_min":8,"x_max":791,"o":"m 688 -16 l 688 30 l 563 460 l 540 460 l 507 517 l 392 528 l 313 449 q 248 271 290 358 q 133 119 206 184 l 8 8 q 274 437 156 221 q 473 892 392 654 l 484 892 q 614 437 518 654 q 707 220 662 327 q 791 -3 751 113 l 688 -16 z "},"B":{"ha":663,"x_min":-24,"x_max":654,"o":"m 85 24 l 110 24 l 134 328 l 85 548 l 98 682 q 49 864 85 779 q -24 1036 12 949 q 227 895 87 937 q 367 854 298 873 q 505 815 435 834 l 505 792 l 543 768 q 576 729 560 749 q 604 688 593 709 q 618 644 614 667 q 616 595 623 621 q 555 535 591 559 q 468 522 518 511 l 468 486 l 505 486 l 642 339 l 654 279 l 543 109 q 308 47 430 60 q 73 -14 186 38 l 85 24 m 579 206 l 579 229 l 605 229 l 605 328 l 518 438 l 123 463 l 123 438 l 172 133 l 245 133 l 245 109 l 320 109 l 579 206 m 393 499 l 518 559 l 530 658 l 480 742 l 419 779 l 393 815 l 160 840 l 123 829 l 110 719 l 148 486 l 320 475 l 393 499 z "},"C":{"ha":865,"x_min":-15,"x_max":853,"o":"m 174 3 q 7 342 37 140 q -12 548 -8 441 q -7 772 -15 655 l 144 1059 q 286 1104 202 1104 l 461 1104 q 610 1036 549 1089 q 747 954 669 983 l 718 954 q 460 1044 594 1015 q 174 1059 326 1074 q 80 882 113 974 q 45 689 47 791 q 39 484 41 587 q 38 274 38 380 l 114 107 l 385 92 q 597 123 498 123 q 793 168 701 123 l 838 304 l 853 304 l 853 198 q 529 54 704 94 q 353 22 442 35 q 174 3 264 9 z "},"D":{"ha":819,"x_min":8,"x_max":810,"o":"m 33 -4 l 8 4 l 8 12 l 56 52 q 100 164 84 106 q 124 284 117 222 q 134 409 132 346 q 136 536 136 472 q 87 833 119 688 q 16 1123 56 979 l 24 1123 l 24 1115 q 63 1092 45 1104 q 99 1067 81 1080 q 183 1051 136 1043 l 183 1036 q 397 1016 288 1020 q 604 956 507 1012 l 643 917 q 727 623 684 765 q 810 330 770 481 q 763 214 787 274 q 692 107 739 155 q 311 -4 515 12 l 255 4 l 183 -4 l 144 4 l 33 -4 m 373 43 q 401 62 385 56 q 433 71 416 68 q 467 79 450 75 q 500 91 484 83 l 509 115 q 556 131 532 115 q 595 171 581 146 l 723 290 l 739 290 l 739 377 q 698 504 719 442 q 655 631 677 566 q 604 901 612 765 q 366 957 484 933 q 111 972 247 981 l 111 956 l 119 917 l 111 892 q 129 744 119 815 q 151 602 138 673 q 168 460 161 533 q 167 305 174 387 q 157 243 164 273 q 144 182 151 213 q 135 120 138 152 q 136 52 132 88 l 152 52 l 152 27 l 231 20 q 302 27 263 34 q 373 43 340 19 m 406 425 l 373 449 l 350 528 q 397 563 366 559 q 461 567 429 567 q 472 543 465 555 q 485 519 479 532 q 494 494 491 507 q 492 464 496 480 l 461 425 l 406 425 z "},"E":{"ha":625,"x_min":-3,"x_max":606,"o":"m 31 -1 q 87 140 83 58 q 93 220 90 180 q 100 298 96 259 l 100 650 q 83 881 100 769 q 41 1104 66 993 l 31 1104 q 19 1168 41 1138 q -3 1233 -3 1198 l -3 1215 q 49 1139 31 1181 q 92 1053 66 1096 l 195 1035 l 581 1035 q 349 1009 467 1046 q 239 982 294 993 q 126 967 184 971 l 126 949 q 173 795 160 880 q 195 624 186 709 q 392 585 289 590 q 606 581 495 581 q 505 557 555 567 q 404 541 454 548 q 212 487 301 529 q 186 302 203 392 q 160 118 170 213 l 245 118 q 349 140 297 136 q 452 144 400 144 l 563 33 l 563 41 q 430 87 502 75 q 281 100 358 100 l 75 24 l 31 -1 z "},"F":{"ha":571,"x_min":-8,"x_max":549,"o":"m -8 -38 l -8 69 l 4 81 l 4 1090 l 15 1090 l 15 1078 l 514 1066 l 62 996 l 27 627 q 122 597 61 591 q 179 602 152 600 q 229 604 206 604 l 479 627 l 549 616 q 282 597 407 616 q 27 556 157 579 l 27 401 l 39 331 l -8 -38 z "},"G":{"ha":637,"x_min":18,"x_max":633,"o":"m 507 -378 q 576 -184 549 -283 q 602 33 602 -85 l 591 106 l 560 106 q 463 62 513 79 q 360 37 412 46 q 255 22 308 27 q 149 11 202 16 q 34 247 54 106 q 20 393 23 320 q 23 548 18 467 l 129 747 q 174 770 149 764 q 228 779 199 777 q 287 780 256 781 q 350 779 317 779 q 406 762 381 773 q 454 731 431 750 q 499 699 476 712 q 549 674 522 685 l 529 674 q 349 737 444 716 q 149 747 255 758 q 60 490 66 632 q 56 345 57 416 q 56 201 56 274 l 107 84 l 297 75 l 581 117 l 591 221 q 481 252 528 221 q 433 280 458 270 q 381 296 408 290 l 403 296 l 633 263 l 633 221 q 612 -31 633 94 q 571 -283 591 -156 l 549 -294 l 529 -315 l 507 -378 z "},"H":{"ha":553,"x_min":-1,"x_max":532,"o":"m 532 -140 l 532 -110 q 480 178 491 33 q 461 475 469 323 l 431 475 l 159 464 l 129 475 q 130 263 140 363 q 90 72 119 163 q 69 499 90 294 q -1 907 49 704 l -1 897 q 84 711 49 807 q 119 505 119 616 l 461 495 q 471 692 453 597 q 511 876 490 787 l 511 675 l 491 293 q 511 237 511 273 q 522 172 511 209 l 511 22 l 532 -140 z "},"I":{"ha":487,"x_min":-1,"x_max":479,"o":"m 259 1 l 210 125 q 271 338 286 217 q 259 578 259 457 l 115 1036 l -1 1085 l -1 1111 l 331 1162 l 331 1111 q 285 1000 285 1065 l 285 868 l 353 141 l 479 125 l 479 76 l 259 1 z "},"J":{"ha":484,"x_min":-1,"x_max":454,"o":"m 236 3 q 143 34 184 14 q 71 96 102 54 q 19 184 39 137 q 8 293 -1 231 l 175 479 l 175 469 q 134 395 153 433 q 96 319 115 358 q 71 137 60 245 l 164 34 l 330 34 q 382 319 372 170 q 392 624 392 468 q 366 857 372 739 q 350 1090 361 975 l 350 1070 q 410 847 388 960 q 438 614 431 734 q 454 127 454 376 l 412 34 q 376 11 396 18 q 334 2 357 4 q 287 1 312 0 q 236 3 262 3 z "},"K":{"ha":640,"x_min":-11,"x_max":624,"o":"m 68 -104 l 68 -26 q 35 152 56 66 q 28 345 15 245 l 15 345 l 28 345 l 56 821 l -11 954 l 3 966 l 95 954 l 187 966 l 161 966 q 95 734 95 863 l 95 477 l 121 477 l 505 954 l 624 966 l 597 966 l 532 940 l 267 543 l 148 464 l 134 358 q 345 233 240 305 q 544 54 450 160 l 532 54 l 465 119 l 385 146 l 373 186 l 148 278 l 134 319 l 81 319 l 68 -104 z "},"L":{"ha":755,"x_min":5,"x_max":743,"o":"m 656 -27 q 451 0 559 -5 q 233 5 343 5 l 233 27 l 60 27 l 5 16 l 5 266 q 12 394 5 331 q 26 520 18 457 q 45 647 35 583 q 60 776 54 711 l 27 863 l 27 841 l 157 743 l 114 732 q 82 625 98 677 q 56 519 66 572 q 43 412 46 467 q 49 298 41 357 l 81 81 q 423 60 255 103 q 582 19 502 38 q 743 -16 662 0 l 656 -27 z "},"M":{"ha":1055,"x_min":16,"x_max":1126,"o":"m 1114 -220 l 1004 -11 l 968 4 q 904 195 941 102 q 819 377 867 288 q 734 561 772 468 q 670 751 697 654 l 637 766 q 600 620 620 692 q 553 475 579 548 q 492 168 502 332 l 481 168 l 359 692 l 326 692 l 81 64 l 92 4 l 71 4 l 16 34 q 76 94 60 49 q 94 138 84 117 q 115 183 104 160 q 184 376 149 281 q 254 564 218 471 q 310 759 289 658 q 336 975 331 860 q 355 842 342 906 q 387 713 368 779 q 448 453 425 587 l 481 438 q 514 579 492 513 q 570 707 536 646 q 670 960 639 831 q 777 664 720 811 q 891 370 833 517 q 1009 77 949 224 q 1126 -220 1069 -71 l 1114 -220 z "},"N":{"ha":848,"x_min":-3,"x_max":837,"o":"m -3 -77 q 53 96 27 8 q 102 277 79 183 q 134 468 125 372 q 137 662 142 564 l 146 662 l 427 392 l 446 392 l 537 302 l 537 282 l 597 263 q 630 638 576 467 q 807 962 684 810 l 837 982 q 747 803 787 892 q 666 612 707 713 l 666 193 l 677 122 l 656 113 l 526 302 l 427 362 l 407 412 l 387 412 l 387 433 l 336 463 l 267 513 l 267 533 l 227 533 l 227 502 l 237 442 q 152 152 228 282 q 78 22 114 87 q 7 -107 42 -42 l -3 -77 z "},"O":{"ha":945,"x_min":-3,"x_max":924,"o":"m 307 -9 q 172 26 240 7 q 45 94 103 46 q 0 251 4 163 q -2 339 -1 294 q -3 427 -3 384 q 15 494 7 461 q 30 559 23 528 q 103 670 45 624 l 132 682 l 151 720 q 357 795 250 779 q 581 798 465 811 q 713 766 650 789 q 825 682 777 742 l 902 583 l 924 271 q 888 178 913 221 q 825 103 864 134 q 580 7 705 37 q 307 -9 454 -22 m 640 54 q 732 109 689 75 q 815 183 774 144 q 894 344 864 262 q 913 524 924 426 l 873 613 l 845 623 l 845 642 q 664 726 757 692 q 465 749 571 760 q 313 734 387 749 q 182 682 240 720 l 163 651 q 78 515 102 593 q 65 349 54 438 q 99 182 76 262 q 172 37 122 103 q 302 8 239 26 q 444 0 366 -11 l 640 54 m 435 290 q 396 334 396 301 l 396 408 l 415 437 l 484 446 q 513 393 503 418 q 522 328 522 368 q 484 300 503 311 q 435 290 465 290 z "},"P":{"ha":505,"x_min":-7,"x_max":490,"o":"m 129 -60 l 138 178 q 123 393 142 288 q 80 601 103 498 q 34 810 56 707 q -7 1015 12 913 l -7 1002 q 41 962 11 979 q 99 958 71 945 l 450 968 q 480 741 471 853 q 490 506 490 629 l 197 472 l 187 415 l 197 292 q 158 105 178 201 q 129 -92 138 9 l 129 -60 m 431 540 l 431 608 l 411 867 l 71 879 l 71 844 q 127 680 88 753 q 187 517 167 602 l 245 517 l 431 540 m 245 652 l 206 697 l 206 720 l 236 765 l 285 765 l 315 674 q 295 642 304 652 q 266 642 286 631 l 245 652 z "},"Q":{"ha":833,"x_min":3,"x_max":830,"o":"m 764 -176 q 669 -111 708 -145 q 587 -22 629 -77 l 587 0 l 488 45 q 388 5 448 12 q 278 -11 332 -1 l 125 56 q 31 286 58 165 q 3 551 3 407 q 39 650 20 602 q 80 745 58 699 q 213 916 125 836 q 328 954 267 948 q 454 959 389 959 q 670 799 585 905 q 746 691 712 747 q 807 574 780 635 l 830 353 l 731 198 l 697 187 l 665 133 l 598 77 l 598 45 l 764 -176 m 400 77 l 389 88 l 433 88 l 433 110 l 400 176 l 488 264 l 532 133 l 566 133 l 609 209 l 643 221 q 731 507 753 331 q 677 586 703 545 q 625 667 651 627 q 570 745 598 707 q 510 815 543 783 l 510 838 q 377 882 454 882 l 224 882 l 179 860 q 92 667 125 770 q 58 441 58 564 q 75 341 64 392 q 108 242 87 290 q 159 152 129 194 q 235 77 190 110 l 389 66 l 400 77 z "},"R":{"ha":502,"x_min":22,"x_max":581,"o":"m 113 374 l 94 374 q 82 182 102 273 q 22 9 62 91 l 22 20 q 52 237 52 114 l 52 467 l 22 892 l 42 892 l 42 872 l 94 872 l 94 852 l 113 852 q 199 878 153 872 q 296 883 245 883 q 361 775 336 830 q 387 658 387 720 l 357 526 l 133 476 l 123 416 l 164 374 l 255 243 l 285 243 q 433 20 366 132 q 581 -202 499 -92 l 113 374 m 214 517 l 305 537 l 305 720 l 245 821 l 123 830 l 94 821 l 94 476 l 123 476 l 214 517 z "},"S":{"ha":605,"x_min":-24,"x_max":600,"o":"m -24 -298 q 3 -193 -7 -245 q 17 -86 12 -140 q 25 23 22 -33 q 34 137 28 79 l 58 43 l 152 43 l 411 79 l 411 161 q 358 260 376 209 q 293 349 339 315 l 106 562 l 106 632 l 176 750 l 471 761 l 552 738 l 600 821 l 529 655 l 481 655 l 353 678 l 282 667 l 282 690 l 222 690 l 222 526 l 258 514 l 404 296 q 471 180 442 239 q 517 56 499 121 q 323 8 423 20 q 129 -16 222 -4 q 64 -174 106 -98 q -24 -334 23 -251 l -24 -298 z "},"T":{"ha":975,"x_min":1,"x_max":952,"o":"m 460 7 l 362 18 l 362 39 l 395 50 q 427 279 406 172 q 441 395 438 336 q 438 521 444 454 q 396 524 418 521 q 351 532 374 526 q 297 586 308 543 l 263 674 l 274 707 l 77 718 l 77 685 l 56 685 l 1 750 l 12 750 l 110 718 q 147 733 126 728 q 192 739 168 738 q 239 740 216 741 q 285 739 263 739 l 319 827 l 340 827 l 362 871 l 384 882 l 384 903 l 340 1035 l 581 1046 l 581 1035 l 505 903 l 548 882 l 548 860 l 581 849 l 624 788 q 635 718 646 758 l 701 718 l 854 739 l 887 728 l 952 761 l 952 728 l 920 652 l 844 652 l 844 674 q 750 696 799 696 q 647 696 701 696 q 581 603 613 642 q 494 532 548 564 l 472 532 l 472 510 l 494 225 l 483 7 l 460 7 m 427 575 l 416 696 l 297 707 l 297 631 q 357 581 319 597 q 427 553 395 564 l 427 575 m 537 575 l 581 597 l 624 696 l 460 696 l 460 597 l 472 553 l 505 553 l 537 575 m 624 718 l 624 806 l 526 860 l 515 892 l 494 892 q 472 810 472 863 q 460 718 472 760 l 624 718 m 416 739 l 416 795 l 406 838 l 362 838 l 319 739 l 416 739 z "},"U":{"ha":594,"x_min":-20,"x_max":581,"o":"m 456 -23 q 363 -11 408 -16 q 274 2 317 -5 q 191 21 231 9 q 114 53 151 33 l 114 79 l 81 91 q 46 264 61 176 q 24 446 31 353 q 11 633 16 541 q 0 814 5 724 l -20 814 l -20 829 l 81 829 l 72 829 q 52 658 52 747 q 52 479 52 568 l 61 427 l 52 324 l 155 91 q 342 39 239 39 l 342 65 l 456 65 q 528 434 498 251 q 570 814 559 617 l 581 814 l 581 789 q 565 427 581 604 q 529 65 549 251 l 507 65 l 487 -9 l 456 -23 z "},"V":{"ha":917,"x_min":-12,"x_max":905,"o":"m 434 127 q 334 342 377 233 q 260 562 292 450 q 50 983 198 787 l -12 1021 l 24 1034 l 149 1021 l 384 1046 l 372 1046 l 273 983 l 224 848 q 291 685 260 766 q 347 518 321 604 q 407 359 373 434 q 484 214 441 283 q 547 422 510 324 q 632 612 585 521 q 725 801 682 705 q 806 996 768 897 l 793 996 l 905 1008 l 905 971 l 806 897 q 723 663 769 779 q 626 432 677 547 q 523 204 575 317 q 422 -20 471 91 l 434 127 z "},"W":{"ha":1081,"x_min":-39,"x_max":1077,"o":"m 483 -12 l 448 11 q 298 427 387 227 q 103 830 210 627 l -39 854 l -4 854 l -4 878 q 139 884 69 878 q 270 913 209 890 l 281 902 l 210 878 l 198 807 q 335 545 270 675 q 435 273 400 415 l 460 273 q 480 425 465 350 q 518 575 495 500 q 566 721 541 650 q 613 865 590 792 q 679 533 637 697 q 755 225 720 369 q 809 391 785 308 q 850 556 833 473 q 958 878 887 731 l 993 890 l 1077 865 l 1017 865 q 941 674 975 770 q 880 480 907 578 q 822 286 853 382 q 755 95 791 190 l 745 95 l 637 700 l 602 700 q 572 524 590 610 q 530 350 553 437 q 471 0 483 165 l 483 -12 z "},"X":{"ha":779,"x_min":12,"x_max":811,"o":"m 811 -99 q 731 47 776 -20 q 629 176 686 115 q 517 300 572 237 q 406 427 463 362 l 362 415 l 240 273 l 237 224 l 12 -5 l 328 486 l 311 544 q 173 713 229 618 q 75 909 117 807 l 90 913 l 85 928 l 214 677 l 266 659 l 354 570 l 399 582 l 581 913 q 511 690 563 799 q 457 471 461 589 q 652 206 581 361 q 811 -99 723 53 z "},"Y":{"ha":727,"x_min":-5,"x_max":707,"o":"m 359 -7 l 359 11 l 332 30 q 282 391 305 216 q 214 734 259 566 l 195 734 q 105 966 151 853 q -5 1190 60 1080 l 132 971 l 159 935 q 191 902 178 916 q 195 861 205 888 l 232 834 l 251 770 l 269 770 l 305 834 q 506 976 407 899 q 707 1126 605 1053 l 662 1072 q 576 991 621 1031 q 488 911 532 951 q 403 829 445 871 q 324 742 361 788 l 315 368 l 359 -7 z "},"Z":{"ha":697,"x_min":9,"x_max":690,"o":"m 623 -31 l 623 -18 l 608 23 l 227 23 l 64 9 l 23 23 l 23 37 l 50 37 q 165 229 111 132 q 268 425 218 327 q 364 620 317 522 q 458 812 411 718 l 227 826 l 118 812 l 64 826 l 50 636 l 37 636 l 9 907 l 104 907 l 513 853 l 513 826 q 442 647 479 738 q 363 466 406 556 q 274 288 321 376 q 172 118 227 199 l 486 91 l 608 132 l 636 227 l 690 -18 l 623 -31 z "},"[":{"ha":694,"x_min":0,"x_max":0,"o":""},"\\":{"ha":694,"x_min":0,"x_max":0,"o":""},"]":{"ha":694,"x_min":0,"x_max":0,"o":""},"^":{"ha":694,"x_min":0,"x_max":0,"o":""},"_":{"ha":694,"x_min":0,"x_max":0,"o":""},"`":{"ha":694,"x_min":0,"x_max":0,"o":""},"a":{"ha":538,"x_min":14,"x_max":536,"o":"m 511 -8 l 444 80 l 410 80 q 357 44 387 57 q 296 24 328 31 q 229 16 263 18 q 160 14 194 14 l 81 47 l 58 206 l 114 285 l 137 285 l 137 308 l 171 308 q 228 363 182 354 q 271 378 251 369 q 308 397 290 387 l 353 420 l 363 454 l 387 467 l 387 488 q 340 528 362 511 q 285 533 319 544 q 142 488 217 498 q 14 431 68 477 q 353 568 171 544 l 410 522 l 410 499 l 444 488 l 444 408 q 483 200 467 307 q 536 -8 499 94 l 511 -8 z "},"b":{"ha":435,"x_min":20,"x_max":423,"o":"m 20 -85 q 41 138 33 24 q 52 374 49 251 q 62 611 54 498 q 83 836 71 724 l 96 836 l 96 407 l 309 393 l 397 407 l 423 199 l 384 83 q 233 56 315 56 l 71 56 l 20 -85 z "},"c":{"ha":594,"x_min":20,"x_max":587,"o":"m 304 -1 l 304 22 l 138 160 l 138 183 l 95 205 l 41 313 l 20 313 l 20 357 l 160 574 q 275 618 214 606 q 400 629 335 629 l 510 476 l 575 444 l 575 422 l 587 422 l 521 454 l 412 552 l 269 595 l 138 509 l 106 465 q 79 406 75 442 q 83 369 81 387 q 84 334 84 351 l 194 205 l 214 205 l 281 117 l 378 106 l 444 127 l 444 151 l 564 183 l 564 171 l 304 -1 z "},"d":{"ha":555,"x_min":12,"x_max":536,"o":"m 47 49 l 12 243 l 145 437 l 231 463 q 260 444 243 450 q 297 437 278 438 q 336 436 316 435 q 376 437 357 437 l 388 656 l 376 864 l 400 925 q 422 693 412 806 q 442 461 433 581 q 536 24 461 229 l 511 24 l 437 49 q 290 12 363 37 q 133 0 218 -12 l 47 49 m 400 511 l 388 524 l 376 511 l 388 499 l 400 511 z "},"e":{"ha":533,"x_min":22,"x_max":514,"o":"m 77 71 q 22 202 22 130 l 22 354 l 133 579 l 267 600 q 351 495 286 543 q 399 372 418 449 l 58 297 l 58 221 l 95 109 l 247 54 l 514 221 l 362 71 q 191 -4 288 -4 l 77 71 z "},"f":{"ha":426,"x_min":24,"x_max":408,"o":"m 94 1 l 94 98 l 117 446 l 106 530 l 24 553 l 24 578 l 117 578 q 119 661 117 620 q 127 741 122 701 q 198 879 140 821 l 315 891 l 361 867 l 408 735 l 408 746 q 355 812 384 783 q 292 867 326 842 l 244 867 q 197 811 216 842 q 169 746 179 780 q 155 675 159 712 q 152 602 152 639 l 210 602 l 221 566 l 129 530 l 129 283 q 94 49 129 163 l 117 24 l 94 1 z "},"g":{"ha":487,"x_min":26,"x_max":488,"o":"m 58 -156 l 26 -12 q 64 90 47 38 q 92 199 81 142 q 120 307 103 254 q 160 411 137 359 l 183 411 l 205 445 q 256 468 228 468 q 307 468 285 468 l 408 456 l 420 468 l 420 434 q 404 399 408 418 q 397 361 399 380 q 393 323 395 342 q 387 289 392 305 l 363 289 l 353 255 l 126 212 l 115 178 l 92 178 l 92 56 l 115 56 q 216 111 160 88 q 340 133 271 133 l 431 88 q 481 -16 475 45 q 486 -79 484 -47 q 488 -145 488 -111 l 465 -212 q 416 -247 444 -235 q 353 -262 388 -259 q 285 -266 319 -264 q 217 -267 251 -267 l 58 -156 m 420 -168 l 442 -122 l 387 56 l 296 77 l 115 11 l 103 -45 l 115 -79 l 239 -134 l 251 -168 l 387 -190 l 420 -168 m 251 -90 l 217 -23 l 251 -23 l 251 -1 l 273 -1 l 296 -12 l 307 -68 l 251 -90 z "},"h":{"ha":387,"x_min":22,"x_max":381,"o":"m 323 -243 l 323 -119 q 298 115 305 -8 q 237 342 292 239 l 161 351 l 115 342 l 95 182 l 106 153 l 76 -7 l 68 -7 l 68 115 l 76 342 q 44 586 58 465 q 22 834 30 707 l 30 844 l 30 758 l 49 758 q 85 569 76 663 q 106 369 95 475 l 134 369 q 203 399 160 399 l 283 399 q 319 344 302 372 q 351 289 336 316 q 369 161 381 239 q 323 -30 323 79 l 323 -243 z "},"i":{"ha":161,"x_min":19,"x_max":148,"o":"m 110 -7 l 110 214 l 19 566 l 37 604 l 92 604 l 110 492 l 92 418 l 110 -7 m 73 807 l 56 880 l 148 899 l 148 807 l 73 807 z "},"j":{"ha":308,"x_min":-12,"x_max":294,"o":"m -12 -193 l -12 -163 l 52 -46 l 52 -61 l 30 -156 l 122 -228 q 222 38 208 -114 q 279 326 237 187 l 279 5 q 272 -47 277 -20 q 262 -100 267 -73 q 209 -193 251 -156 l 186 -199 l 159 -228 q 122 -250 145 -250 q 87 -264 102 -250 l -12 -193 m 286 363 l 286 377 l 251 385 l 251 473 l 264 473 l 264 495 l 294 370 l 286 363 z "},"k":{"ha":397,"x_min":15,"x_max":408,"o":"m 393 -31 l 278 22 q 203 110 236 58 q 168 159 187 137 q 122 199 148 180 l 122 214 l 94 229 l 57 259 q 43 134 57 194 q 28 8 28 73 l 28 534 l 15 652 l 35 831 l 28 869 l 28 861 q 50 602 43 734 q 57 334 57 469 l 72 334 l 94 400 q 183 463 137 437 q 273 519 229 488 l 273 488 q 172 430 222 467 q 94 340 122 393 l 85 274 l 236 73 l 408 -31 l 393 -31 z "},"l":{"ha":132,"x_min":34,"x_max":110,"o":"m 84 0 l 84 115 l 46 484 l 60 574 l 46 713 l 60 982 l 34 1160 q 85 695 72 930 q 110 217 98 460 l 84 0 z "},"m":{"ha":620,"x_min":11,"x_max":609,"o":"m 79 178 q 56 265 65 220 q 45 358 47 311 q 33 452 42 407 q 11 540 24 498 l 65 469 l 107 469 l 260 496 l 301 483 l 316 427 l 357 427 l 454 469 l 552 427 q 602 254 594 343 q 609 66 609 164 l 609 94 l 566 289 l 538 289 l 525 358 l 468 358 l 357 316 q 336 244 342 281 q 328 170 330 208 q 327 96 326 133 q 328 24 328 58 q 309 205 328 122 q 245 372 289 289 l 163 387 q 118 300 134 346 q 93 205 102 254 q 81 109 84 157 q 79 12 79 60 l 79 178 z "},"n":{"ha":449,"x_min":39,"x_max":445,"o":"m 52 -3 l 39 302 l 52 378 l 39 559 l 52 559 l 80 494 l 122 481 l 164 494 l 164 532 l 401 559 q 437 442 445 507 q 432 378 434 411 q 430 315 430 346 l 374 34 l 374 60 l 388 328 l 359 507 l 206 507 l 149 494 l 149 442 q 94 251 80 378 q 97 130 100 186 q 80 22 94 73 l 65 22 l 65 -3 l 52 -3 z "},"o":{"ha":563,"x_min":20,"x_max":543,"o":"m 194 0 q 117 20 156 9 q 46 58 79 31 q 22 147 23 98 q 20 245 20 197 q 38 321 30 285 q 79 385 46 357 l 95 391 l 106 414 q 222 454 163 445 q 349 456 282 464 q 422 438 387 450 q 486 391 458 426 l 529 335 l 543 159 q 522 106 536 130 q 486 65 507 81 q 349 10 420 26 q 194 0 277 -5 m 381 37 q 433 67 408 47 q 480 109 457 87 q 525 199 507 153 q 536 301 543 244 l 514 351 l 496 357 l 496 368 q 395 416 448 396 q 282 429 343 435 q 197 421 239 429 q 122 391 156 414 l 113 373 q 65 297 79 342 q 57 202 52 252 q 77 109 62 153 q 118 26 91 65 q 192 10 156 20 q 271 4 228 0 l 381 37 m 267 170 q 244 195 244 175 q 244 236 244 214 l 255 252 l 294 258 q 311 228 305 241 q 316 193 316 214 q 267 170 293 170 z "},"p":{"ha":464,"x_min":16,"x_max":448,"o":"m 126 -481 l 126 -420 q 98 -199 114 -309 q 64 22 83 -88 q 33 241 45 132 q 16 467 22 351 l 52 477 l 102 467 q 194 490 141 490 q 298 502 250 490 q 373 370 336 441 q 423 218 410 300 l 448 146 l 225 87 l 126 99 l 126 -56 l 138 -269 l 126 -481 z "},"q":{"ha":369,"x_min":8,"x_max":395,"o":"m 119 -297 l 111 -198 q 163 4 141 -96 q 201 214 186 104 l 193 214 l 75 175 l 22 191 q 8 273 8 231 q 8 362 8 316 l 45 479 l 209 495 l 237 479 l 254 503 l 260 503 l 260 464 q 212 109 260 277 q 134 -237 164 -58 q 193 -241 164 -237 q 245 -259 222 -244 l 245 -275 l 320 -275 l 350 -267 l 372 -206 q 338 -113 342 -168 q 297 -19 335 -60 l 275 4 l 275 -11 l 335 -50 l 335 -65 q 351 -71 346 -65 q 361 -85 357 -76 q 368 -103 365 -94 q 378 -121 372 -113 l 395 -244 l 378 -275 q 272 -313 327 -297 q 156 -321 217 -330 l 119 -297 z "},"r":{"ha":429,"x_min":19,"x_max":412,"o":"m 71 -9 q 51 271 57 134 q 19 540 45 408 l 19 514 l 96 448 q 215 528 149 500 q 346 579 281 555 l 412 553 l 412 514 l 385 475 l 397 553 l 281 553 l 214 526 q 90 278 123 408 q 71 -9 57 148 z "},"s":{"ha":349,"x_min":1,"x_max":338,"o":"m 1 -132 q 17 -73 11 -103 q 28 -12 23 -42 q 41 50 34 19 q 60 111 47 81 l 66 111 l 66 81 l 194 65 l 217 73 l 217 88 l 187 155 l 104 201 l 98 327 q 186 345 141 334 q 282 350 231 357 l 313 425 l 338 431 l 338 441 l 338 425 l 292 283 l 277 283 l 260 252 q 208 271 237 275 q 156 275 179 267 l 156 231 l 194 118 l 237 96 l 269 15 l 217 7 l 83 37 q 26 -62 45 -8 q 1 -178 7 -117 l 1 -132 z "},"t":{"ha":498,"x_min":16,"x_max":476,"o":"m 244 -114 l 201 -100 l 171 56 l 187 308 l 16 321 l 16 335 l 187 335 l 216 509 l 216 335 l 431 335 l 216 308 l 201 56 l 273 -37 l 316 -49 l 476 56 l 476 42 l 359 -85 l 244 -114 z "},"u":{"ha":446,"x_min":4,"x_max":427,"o":"m 418 -19 l 380 12 l 357 42 q 256 1 317 -1 q 133 5 195 5 l 49 34 q 15 192 26 111 q 9 366 4 273 l 9 351 q 27 288 22 320 q 37 224 33 256 q 45 159 41 191 q 57 96 49 126 q 95 78 76 88 q 134 60 114 68 q 174 49 153 53 q 218 49 195 45 l 317 88 q 372 247 349 165 q 418 415 395 328 l 418 144 l 410 34 l 427 -19 l 418 -19 z "},"v":{"ha":591,"x_min":11,"x_max":576,"o":"m 311 1 l 301 35 q 277 42 286 35 q 263 59 269 49 q 254 81 258 69 q 245 100 250 92 l 56 282 l 37 308 l 19 308 l 19 324 l 11 324 l 19 324 l 168 225 l 319 100 l 576 376 l 576 366 l 311 1 z "},"w":{"ha":521,"x_min":14,"x_max":704,"o":"m 338 -14 l 240 156 l 224 156 l 208 132 l 191 132 q 167 66 191 91 q 126 9 142 42 l 119 9 q 69 184 94 99 q 14 359 45 270 l 20 359 q 65 233 45 294 q 119 115 85 172 l 142 107 l 208 189 l 232 197 l 232 229 l 248 229 l 281 91 l 297 91 l 313 60 l 338 50 l 346 83 l 362 83 l 500 294 l 525 301 q 610 439 557 376 q 661 509 637 473 q 704 579 685 544 l 704 570 q 590 404 647 488 q 484 229 533 319 l 468 229 q 399 104 435 164 q 330 -22 362 43 l 338 -14 z "},"x":{"ha":502,"x_min":15,"x_max":484,"o":"m 464 -167 q 439 -69 456 -115 q 401 21 422 -23 q 355 109 380 65 q 308 201 331 153 l 281 201 l 189 136 l 180 107 l 15 5 l 271 245 l 271 282 q 216 402 235 339 q 189 530 198 465 l 198 530 l 198 541 l 235 373 l 263 355 l 298 290 l 327 290 l 484 456 q 451 394 469 425 q 410 336 433 363 q 346 218 365 283 q 391 131 373 176 q 418 35 408 85 q 439 -65 427 -15 q 464 -167 450 -115 z "},"y":{"ha":431,"x_min":15,"x_max":414,"o":"m 75 -109 l 104 -28 l 114 -28 l 114 -38 l 84 -129 l 144 -148 l 183 -129 l 194 -88 q 138 197 203 72 q 76 320 107 259 q 15 442 45 381 l 125 301 l 125 282 l 233 221 l 323 342 l 354 351 l 414 431 l 414 422 q 353 312 384 365 q 289 202 321 259 q 246 82 256 145 q 254 -58 236 19 l 274 -148 q 193 -182 233 -178 q 104 -187 153 -187 l 75 -109 z "},"z":{"ha":499,"x_min":18,"x_max":484,"o":"m 18 16 l 18 24 q 154 129 84 75 q 298 224 224 183 l 298 240 l 326 240 l 326 266 q 195 278 258 266 q 84 350 136 290 l 91 350 q 247 311 168 323 q 408 300 326 300 q 250 178 332 232 q 170 119 208 151 q 99 49 133 87 l 484 49 q 278 13 382 24 q 66 8 174 1 l 18 16 z "},"{":{"ha":694,"x_min":0,"x_max":0,"o":""},"|":{"ha":694,"x_min":0,"x_max":0,"o":""},"}":{"ha":694,"x_min":0,"x_max":0,"o":""},"~":{"ha":694,"x_min":0,"x_max":0,"o":""},"€":{"ha":694,"x_min":0,"x_max":0,"o":""},"‚":{"ha":694,"x_min":0,"x_max":0,"o":""},"ƒ":{"ha":694,"x_min":0,"x_max":0,"o":""},"„":{"ha":694,"x_min":0,"x_max":0,"o":""},"…":{"ha":694,"x_min":0,"x_max":0,"o":""},"†":{"ha":694,"x_min":0,"x_max":0,"o":""},"‡":{"ha":694,"x_min":0,"x_max":0,"o":""},"ˆ":{"ha":694,"x_min":0,"x_max":0,"o":""},"‰":{"ha":694,"x_min":0,"x_max":0,"o":""},"Š":{"ha":694,"x_min":0,"x_max":0,"o":""},"‹":{"ha":694,"x_min":0,"x_max":0,"o":""},"Œ":{"ha":694,"x_min":0,"x_max":0,"o":""},"‘":{"ha":694,"x_min":0,"x_max":0,"o":""},"’":{"ha":694,"x_min":0,"x_max":0,"o":""},"“":{"ha":694,"x_min":0,"x_max":0,"o":""},"”":{"ha":694,"x_min":0,"x_max":0,"o":""},"•":{"ha":694,"x_min":0,"x_max":0,"o":""},"–":{"ha":694,"x_min":0,"x_max":0,"o":""},"—":{"ha":694,"x_min":0,"x_max":0,"o":""},"˜":{"ha":694,"x_min":0,"x_max":0,"o":""},"™":{"ha":694,"x_min":0,"x_max":0,"o":""},"š":{"ha":694,"x_min":0,"x_max":0,"o":""},"›":{"ha":694,"x_min":0,"x_max":0,"o":""},"œ":{"ha":694,"x_min":0,"x_max":0,"o":""},"Ÿ":{"ha":694,"x_min":0,"x_max":0,"o":""}," ":{"ha":694,"x_min":0,"x_max":0,"o":""},"¡":{"ha":694,"x_min":0,"x_max":0,"o":""},"¢":{"ha":694,"x_min":0,"x_max":0,"o":""},"£":{"ha":694,"x_min":0,"x_max":0,"o":""},"¤":{"ha":694,"x_min":0,"x_max":0,"o":""},"¥":{"ha":694,"x_min":0,"x_max":0,"o":""},"¦":{"ha":694,"x_min":0,"x_max":0,"o":""},"§":{"ha":694,"x_min":0,"x_max":0,"o":""},"¨":{"ha":694,"x_min":0,"x_max":0,"o":""},"©":{"ha":694,"x_min":0,"x_max":0,"o":""},"ª":{"ha":694,"x_min":0,"x_max":0,"o":""},"«":{"ha":694,"x_min":0,"x_max":0,"o":""},"¬":{"ha":694,"x_min":0,"x_max":0,"o":""},"­":{"ha":694,"x_min":0,"x_max":0,"o":""},"®":{"ha":694,"x_min":0,"x_max":0,"o":""},"¯":{"ha":694,"x_min":0,"x_max":0,"o":""},"°":{"ha":694,"x_min":0,"x_max":0,"o":""},"±":{"ha":694,"x_min":0,"x_max":0,"o":""},"²":{"ha":694,"x_min":0,"x_max":0,"o":""},"³":{"ha":694,"x_min":0,"x_max":0,"o":""},"´":{"ha":694,"x_min":0,"x_max":0,"o":""},"µ":{"ha":694,"x_min":0,"x_max":0,"o":""},"¶":{"ha":694,"x_min":0,"x_max":0,"o":""},"·":{"ha":694,"x_min":0,"x_max":0,"o":""},"¸":{"ha":694,"x_min":0,"x_max":0,"o":""},"¹":{"ha":694,"x_min":0,"x_max":0,"o":""},"º":{"ha":694,"x_min":0,"x_max":0,"o":""},"»":{"ha":694,"x_min":0,"x_max":0,"o":""},"¼":{"ha":694,"x_min":0,"x_max":0,"o":""},"½":{"ha":694,"x_min":0,"x_max":0,"o":""},"¾":{"ha":694,"x_min":0,"x_max":0,"o":""},"¿":{"ha":694,"x_min":0,"x_max":0,"o":""},"À":{"ha":694,"x_min":0,"x_max":0,"o":""},"Á":{"ha":694,"x_min":0,"x_max":0,"o":""},"Â":{"ha":694,"x_min":0,"x_max":0,"o":""},"Ã":{"ha":694,"x_min":0,"x_max":0,"o":""},"Ä":{"ha":694,"x_min":0,"x_max":0,"o":""},"Å":{"ha":694,"x_min":0,"x_max":0,"o":""},"Æ":{"ha":694,"x_min":0,"x_max":0,"o":""},"Ç":{"ha":694,"x_min":0,"x_max":0,"o":""},"È":{"ha":694,"x_min":0,"x_max":0,"o":""},"É":{"ha":694,"x_min":0,"x_max":0,"o":""},"Ê":{"ha":694,"x_min":0,"x_max":0,"o":""},"Ë":{"ha":694,"x_min":0,"x_max":0,"o":""},"Ì":{"ha":694,"x_min":0,"x_max":0,"o":""},"Í":{"ha":694,"x_min":0,"x_max":0,"o":""},"Î":{"ha":694,"x_min":0,"x_max":0,"o":""},"Ï":{"ha":694,"x_min":0,"x_max":0,"o":""},"Ð":{"ha":694,"x_min":0,"x_max":0,"o":""},"Ñ":{"ha":694,"x_min":0,"x_max":0,"o":""},"Ò":{"ha":694,"x_min":0,"x_max":0,"o":""},"Ó":{"ha":694,"x_min":0,"x_max":0,"o":""},"Ô":{"ha":694,"x_min":0,"x_max":0,"o":""},"Õ":{"ha":694,"x_min":0,"x_max":0,"o":""},"Ö":{"ha":694,"x_min":0,"x_max":0,"o":""},"×":{"ha":694,"x_min":0,"x_max":0,"o":""},"Ø":{"ha":694,"x_min":0,"x_max":0,"o":""},"Ù":{"ha":694,"x_min":0,"x_max":0,"o":""},"Ú":{"ha":694,"x_min":0,"x_max":0,"o":""},"Û":{"ha":694,"x_min":0,"x_max":0,"o":""},"Ü":{"ha":694,"x_min":0,"x_max":0,"o":""},"Ý":{"ha":694,"x_min":0,"x_max":0,"o":""},"Þ":{"ha":694,"x_min":0,"x_max":0,"o":""},"ß":{"ha":694,"x_min":0,"x_max":0,"o":""},"à":{"ha":694,"x_min":0,"x_max":0,"o":""},"á":{"ha":694,"x_min":0,"x_max":0,"o":""},"â":{"ha":694,"x_min":0,"x_max":0,"o":""},"ã":{"ha":694,"x_min":0,"x_max":0,"o":""},"ä":{"ha":694,"x_min":0,"x_max":0,"o":""},"å":{"ha":694,"x_min":0,"x_max":0,"o":""},"æ":{"ha":694,"x_min":0,"x_max":0,"o":""},"ç":{"ha":694,"x_min":0,"x_max":0,"o":""},"è":{"ha":694,"x_min":0,"x_max":0,"o":""},"é":{"ha":694,"x_min":0,"x_max":0,"o":""},"ê":{"ha":694,"x_min":0,"x_max":0,"o":""},"ë":{"ha":694,"x_min":0,"x_max":0,"o":""},"ì":{"ha":694,"x_min":0,"x_max":0,"o":""},"í":{"ha":694,"x_min":0,"x_max":0,"o":""},"î":{"ha":694,"x_min":0,"x_max":0,"o":""},"ï":{"ha":694,"x_min":0,"x_max":0,"o":""},"ð":{"ha":694,"x_min":0,"x_max":0,"o":""},"ñ":{"ha":694,"x_min":0,"x_max":0,"o":""},"ò":{"ha":694,"x_min":0,"x_max":0,"o":""},"ó":{"ha":694,"x_min":0,"x_max":0,"o":""},"ô":{"ha":694,"x_min":0,"x_max":0,"o":""},"õ":{"ha":694,"x_min":0,"x_max":0,"o":""},"ö":{"ha":694,"x_min":0,"x_max":0,"o":""},"÷":{"ha":694,"x_min":0,"x_max":0,"o":""},"ø":{"ha":694,"x_min":0,"x_max":0,"o":""},"ù":{"ha":694,"x_min":0,"x_max":0,"o":""},"ú":{"ha":694,"x_min":0,"x_max":0,"o":""},"û":{"ha":694,"x_min":0,"x_max":0,"o":""},"ü":{"ha":694,"x_min":0,"x_max":0,"o":""},"ý":{"ha":694,"x_min":0,"x_max":0,"o":""},"þ":{"ha":694,"x_min":0,"x_max":0,"o":""},"ÿ":{"ha":694,"x_min":0,"x_max":0,"o":""},"Ž":{"ha":694,"x_min":0,"x_max":0,"o":""},"ž":{"ha":694,"x_min":0,"x_max":0,"o":""},"∙":{"ha":694,"x_min":0,"x_max":0,"o":""}}}
